<svg xmlns="http://www.w3.org/2000/svg" width="13" height="12" viewBox="0 0 13 12">
<defs>
    <style>
      .cls-1 {
        fill: #1a1a1a;
        fill-rule: evenodd;
      }
    </style>
  </defs>
  <path class="cls-1" d="M1078.54,90s-10.3-8.578-5.05-11.384a27.845,27.845,0,0,0,10,0c5.26,2.805-4.95,11.384-4.95,11.384m-0.08-9.344a6.556,6.556,0,0,0-1.06-.869,2.872,2.872,0,0,0-3-.076,1.232,1.232,0,0,0-.74.975,1.977,1.977,0,0,0-.02.248c0,1.891,2.63,4.972,4.9,7.1,2.23-2.117,4.81-5.182,4.81-7.073a2.166,2.166,0,0,0-.01-0.257,1.25,1.25,0,0,0-.76-0.987,2.531,2.531,0,0,0-2.9.008,6.408,6.408,0,0,0-1.22.937" transform="translate(-1072 -78)"/>
</svg>
